<?xml version="1.0" encoding="UTF-8"?>
<svg xmlns="http://www.w3.org/2000/svg" viewBox="0 0 400 400" width="400" height="400">
  <defs>
    <!-- Gradientes para as pétalas -->
    <linearGradient id="petalGradient1" x1="0%" y1="0%" x2="100%" y2="100%">
      <stop offset="0%" style="stop-color:#FFE4E6;stop-opacity:1" />
      <stop offset="30%" style="stop-color:#F8BBD9;stop-opacity:1" />
      <stop offset="70%" style="stop-color:#E879F9;stop-opacity:1" />
      <stop offset="100%" style="stop-color:#C026D3;stop-opacity:1" />
    </linearGradient>
    
    <linearGradient id="petalGradient2" x1="0%" y1="0%" x2="100%" y2="100%">
      <stop offset="0%" style="stop-color:#FDF2F8;stop-opacity:1" />
      <stop offset="40%" style="stop-color:#F3E8FF;stop-opacity:1" />
      <stop offset="80%" style="stop-color:#DDD6FE;stop-opacity:1" />
      <stop offset="100%" style="stop-color:#A855F7;stop-opacity:1" />
    </linearGradient>
    
    <linearGradient id="centerGradient" x1="0%" y1="0%" x2="100%" y2="100%">
      <stop offset="0%" style="stop-color:#FEF3C7;stop-opacity:1" />
      <stop offset="50%" style="stop-color:#F59E0B;stop-opacity:1" />
      <stop offset="100%" style="stop-color:#D97706;stop-opacity:1" />
    </linearGradient>
    
    <!-- Sombras -->
    <filter id="dropShadow" x="-50%" y="-50%" width="200%" height="200%">
      <feDropShadow dx="2" dy="4" stdDeviation="3" flood-color="#000000" flood-opacity="0.2"/>
    </filter>
    
    <filter id="glow" x="-50%" y="-50%" width="200%" height="200%">
      <feGaussianBlur stdDeviation="3" result="coloredBlur"/>
      <feMerge> 
        <feMergeNode in="coloredBlur"/>
        <feMergeNode in="SourceGraphic"/>
      </feMerge>
    </filter>
  </defs>
  
  <!-- Pétalas externas (camada de fundo) -->
  <g transform="translate(200,200)" filter="url(#dropShadow)">
    <!-- Pétala superior -->
    <path d="M 0,-120 C -30,-140 -60,-120 -45,-80 C -30,-40 0,-20 0,-20 C 0,-20 30,-40 45,-80 C 60,-120 30,-140 0,-120 Z" 
          fill="url(#petalGradient2)" opacity="0.8"/>
    
    <!-- Pétala superior direita -->
    <path d="M 85,-85 C 120,-120 140,-90 120,-50 C 100,-10 80,10 80,10 C 80,10 60,-10 40,-50 C 20,-90 50,-120 85,-85 Z" 
          fill="url(#petalGradient2)" opacity="0.8"/>
    
    <!-- Pétala direita -->
    <path d="M 120,0 C 140,-30 120,-60 80,-45 C 40,-30 20,0 20,0 C 20,0 40,30 80,45 C 120,60 140,30 120,0 Z" 
          fill="url(#petalGradient2)" opacity="0.8"/>
    
    <!-- Pétala inferior direita -->
    <path d="M 85,85 C 120,120 90,140 50,120 C 10,100 -10,80 -10,80 C -10,80 10,60 50,40 C 90,20 120,50 85,85 Z" 
          fill="url(#petalGradient2)" opacity="0.8"/>
    
    <!-- Pétala inferior -->
    <path d="M 0,120 C 30,140 60,120 45,80 C 30,40 0,20 0,20 C 0,20 -30,40 -45,80 C -60,120 -30,140 0,120 Z" 
          fill="url(#petalGradient2)" opacity="0.8"/>
    
    <!-- Pétala inferior esquerda -->
    <path d="M -85,85 C -120,120 -140,90 -120,50 C -100,10 -80,-10 -80,-10 C -80,-10 -60,10 -40,50 C -20,90 -50,120 -85,85 Z" 
          fill="url(#petalGradient2)" opacity="0.8"/>
    
    <!-- Pétala esquerda -->
    <path d="M -120,0 C -140,30 -120,60 -80,45 C -40,30 -20,0 -20,0 C -20,0 -40,-30 -80,-45 C -120,-60 -140,-30 -120,0 Z" 
          fill="url(#petalGradient2)" opacity="0.8"/>
    
    <!-- Pétala superior esquerda -->
    <path d="M -85,-85 C -120,-120 -90,-140 -50,-120 C -10,-100 10,-80 10,-80 C 10,-80 -10,-60 -50,-40 C -90,-20 -120,-50 -85,-85 Z" 
          fill="url(#petalGradient2)" opacity="0.8"/>
  </g>
  
  <!-- Pétalas internas (camada frontal) -->
  <g transform="translate(200,200)" filter="url(#glow)">
    <!-- Pétala central superior -->
    <path d="M 0,-80 C -20,-95 -40,-80 -30,-50 C -20,-20 0,-10 0,-10 C 0,-10 20,-20 30,-50 C 40,-80 20,-95 0,-80 Z" 
          fill="url(#petalGradient1)"/>
    
    <!-- Pétala central direita superior -->
    <path d="M 57,-57 C 80,-80 95,-60 80,-30 C 65,-5 50,5 50,5 C 50,5 35,-5 20,-30 C 5,-60 25,-80 57,-57 Z" 
          fill="url(#petalGradient1)"/>
    
    <!-- Pétala central direita -->
    <path d="M 80,0 C 95,-20 80,-40 50,-30 C 20,-20 10,0 10,0 C 10,0 20,20 50,30 C 80,40 95,20 80,0 Z" 
          fill="url(#petalGradient1)"/>
    
    <!-- Pétala central direita inferior -->
    <path d="M 57,57 C 80,80 60,95 30,80 C 5,65 -5,50 -5,50 C -5,50 5,35 30,20 C 60,5 80,25 57,57 Z" 
          fill="url(#petalGradient1)"/>
    
    <!-- Pétala central inferior -->
    <path d="M 0,80 C 20,95 40,80 30,50 C 20,20 0,10 0,10 C 0,10 -20,20 -30,50 C -40,80 -20,95 0,80 Z" 
          fill="url(#petalGradient1)"/>
    
    <!-- Pétala central esquerda inferior -->
    <path d="M -57,57 C -80,80 -95,60 -80,30 C -65,5 -50,-5 -50,-5 C -50,-5 -35,5 -20,30 C -5,60 -25,80 -57,57 Z" 
          fill="url(#petalGradient1)"/>
    
    <!-- Pétala central esquerda -->
    <path d="M -80,0 C -95,20 -80,40 -50,30 C -20,20 -10,0 -10,0 C -10,0 -20,-20 -50,-30 C -80,-40 -95,-20 -80,0 Z" 
          fill="url(#petalGradient1)"/>
    
    <!-- Pétala central esquerda superior -->
    <path d="M -57,-57 C -80,-80 -60,-95 -30,-80 C -5,-65 5,-50 5,-50 C 5,-50 -5,-35 -30,-20 C -60,-5 -80,-25 -57,-57 Z" 
          fill="url(#petalGradient1)"/>
  </g>
  
  <!-- Centro da flor -->
  <g transform="translate(200,200)">
    <circle cx="0" cy="0" r="20" fill="url(#centerGradient)" filter="url(#glow)"/>
    
    <!-- Pequenos detalhes no centro -->
    <circle cx="-6" cy="-6" r="2" fill="#FEF3C7" opacity="0.8"/>
    <circle cx="6" cy="-4" r="1.5" fill="#FEF3C7" opacity="0.8"/>
    <circle cx="-3" cy="6" r="1.5" fill="#FEF3C7" opacity="0.8"/>
    <circle cx="4" cy="5" r="1" fill="#FEF3C7" opacity="0.8"/>
    
    <!-- Estames pequenos -->
    <circle cx="0" cy="0" r="8" fill="none" stroke="#F59E0B" stroke-width="1" opacity="0.6"/>
    <g opacity="0.7">
      <circle cx="0" cy="-6" r="1" fill="#D97706"/>
      <circle cx="4" cy="-4" r="1" fill="#D97706"/>
      <circle cx="6" cy="0" r="1" fill="#D97706"/>
      <circle cx="4" cy="4" r="1" fill="#D97706"/>
      <circle cx="0" cy="6" r="1" fill="#D97706"/>
      <circle cx="-4" cy="4" r="1" fill="#D97706"/>
      <circle cx="-6" cy="0" r="1" fill="#D97706"/>
      <circle cx="-4" cy="-4" r="1" fill="#D97706"/>
    </g>
  </g>
  
  <!-- Efeito de brilho sutil -->
  <g transform="translate(200,200)" opacity="0.3">
    <circle cx="-40" cy="-40" r="8" fill="#FFFFFF" filter="url(#glow)"/>
    <circle cx="35" cy="-25" r="4" fill="#FFFFFF" filter="url(#glow)"/>
    <circle cx="-20" cy="30" r="3" fill="#FFFFFF" filter="url(#glow)"/>
  </g>
</svg>