<?xml version="1.0" encoding="UTF-8"?>
<svg xmlns="http://www.w3.org/2000/svg" viewBox="0 0 32 32" width="32" height="32">
  <defs>
    <linearGradient id="favicon-gradient" x1="0%" y1="0%" x2="100%" y2="100%">
      <stop offset="0%" style="stop-color:#E879F9;stop-opacity:1" />
      <stop offset="50%" style="stop-color:#C026D3;stop-opacity:1" />
      <stop offset="100%" style="stop-color:#A855F7;stop-opacity:1" />
    </linearGradient>
  </defs>
  
  <!-- Pétalas externas simplificadas -->
  <g transform="translate(16,16)">
    <!-- Pétala superior -->
    <path d="M 0,-12 C -3,-14 -6,-12 -4.5,-8 C -3,-4 0,-2 0,-2 C 0,-2 3,-4 4.5,-8 C 6,-12 3,-14 0,-12 Z" 
          fill="url(#favicon-gradient)" opacity="0.8"/>
    
    <!-- Pétala direita -->
    <path d="M 8.5,-8.5 C 12,-12 14,-9 12,-5 C 10,-1 8,1 8,1 C 8,1 6,-1 4,-5 C 2,-9 5,-12 8.5,-8.5 Z" 
          fill="url(#favicon-gradient)" opacity="0.8"/>
    
    <!-- Pétala inferior direita -->
    <path d="M 8.5,8.5 C 12,12 9,14 5,12 C 1,10 -1,8 -1,8 C -1,8 1,6 5,4 C 9,2 12,5 8.5,8.5 Z" 
          fill="url(#favicon-gradient)" opacity="0.8"/>
    
    <!-- Pétala inferior -->
    <path d="M 0,12 C 3,14 6,12 4.5,8 C 3,4 0,2 0,2 C 0,2 -3,4 -4.5,8 C -6,12 -3,14 0,12 Z" 
          fill="url(#favicon-gradient)" opacity="0.8"/>
    
    <!-- Pétala inferior esquerda -->
    <path d="M -8.5,8.5 C -12,12 -14,9 -12,5 C -10,1 -8,-1 -8,-1 C -8,-1 -6,1 -4,5 C -2,9 -5,12 -8.5,8.5 Z" 
          fill="url(#favicon-gradient)" opacity="0.8"/>
    
    <!-- Pétala esquerda -->
    <path d="M -8.5,-8.5 C -12,-12 -9,-14 -5,-12 C -1,-10 1,-8 1,-8 C 1,-8 -1,-6 -5,-4 C -9,-2 -12,-5 -8.5,-8.5 Z" 
          fill="url(#favicon-gradient)" opacity="0.8"/>
  </g>
  
  <!-- Pétalas internas -->
  <g transform="translate(16,16)">
    <!-- Pétala central superior -->
    <path d="M 0,-8 C -2,-9.5 -4,-8 -3,-5 C -2,-2 0,-1 0,-1 C 0,-1 2,-2 3,-5 C 4,-8 2,-9.5 0,-8 Z" 
          fill="url(#favicon-gradient)"/>
    
    <!-- Pétala central direita -->
    <path d="M 5.7,-5.7 C 8,-8 9.5,-6 8,-3 C 6.5,-0.5 5,0.5 5,0.5 C 5,0.5 3.5,-0.5 2,-3 C 0.5,-6 2.5,-8 5.7,-5.7 Z" 
          fill="url(#favicon-gradient)"/>
    
    <!-- Pétala central direita inferior -->
    <path d="M 5.7,5.7 C 8,8 6,9.5 3,8 C 0.5,6.5 -0.5,5 -0.5,5 C -0.5,5 0.5,3.5 3,2 C 6,0.5 8,2.5 5.7,5.7 Z" 
          fill="url(#favicon-gradient)"/>
    
    <!-- Pétala central inferior -->
    <path d="M 0,8 C 2,9.5 4,8 3,5 C 2,2 0,1 0,1 C 0,1 -2,2 -3,5 C -4,8 -2,9.5 0,8 Z" 
          fill="url(#favicon-gradient)"/>
    
    <!-- Pétala central esquerda inferior -->
    <path d="M -5.7,5.7 C -8,8 -9.5,6 -8,3 C -6.5,0.5 -5,-0.5 -5,-0.5 C -5,-0.5 -3.5,0.5 -2,3 C -0.5,6 -2.5,8 -5.7,5.7 Z" 
          fill="url(#favicon-gradient)"/>
    
    <!-- Pétala central esquerda -->
    <path d="M -5.7,-5.7 C -8,-8 -6,-9.5 -3,-8 C -0.5,-6.5 0.5,-5 0.5,-5 C 0.5,-5 -0.5,-3.5 -3,-2 C -6,-0.5 -8,-2.5 -5.7,-5.7 Z" 
          fill="url(#favicon-gradient)"/>
  </g>
  
  <!-- Centro da flor -->
  <circle cx="16" cy="16" r="3" fill="#F59E0B"/>
  <circle cx="16" cy="16" r="1.5" fill="#FEF3C7"/>
</svg>