<?xml version="1.0" standalone="no"?>
<!DOCTYPE svg PUBLIC "-//W3C//DTD SVG 20010904//EN"
 "http://www.w3.org/TR/2001/REC-SVG-20010904/DTD/svg10.dtd">
<svg version="1.0" xmlns="http://www.w3.org/2000/svg"
 width="512.000000pt" height="512.000000pt" viewBox="0 0 512.000000 512.000000"
 preserveAspectRatio="xMidYMid meet">

<g transform="translate(0.000000,512.000000) scale(0.100000,-0.100000)"
fill="#000000" stroke="none">
<path d="M2430 4353 c-152 -144 -324 -358 -410 -509 l-29 -51 34 -33 33 -32
67 103 c96 149 181 254 316 393 l118 121 81 -80 c309 -303 525 -675 624 -1076
41 -166 59 -324 60 -536 l1 -192 35 -36 35 -36 7 38 c18 95 20 330 4 478 l-16
150 23 17 c42 33 272 146 370 182 126 47 311 91 460 111 172 22 163 24 176
-34 6 -27 15 -110 22 -185 38 -463 -103 -950 -387 -1337 l-33 -46 32 -31 33
-32 51 67 c61 82 130 188 138 214 4 11 16 19 29 19 38 0 196 -58 312 -114 108
-54 314 -183 314 -198 0 -15 -100 -176 -158 -254 -32 -43 -88 -113 -125 -154
l-66 -75 31 -32 32 -33 44 42 c97 95 240 291 328 452 l38 69 -44 40 c-119 105
-362 238 -554 303 -64 21 -116 44 -116 50 0 6 13 40 29 75 112 249 181 625
167 915 -6 148 -32 348 -48 377 -9 18 -17 19 -107 13 -358 -26 -675 -120 -957
-285 l-51 -30 -23 87 c-72 278 -217 572 -400 812 -131 171 -351 390 -394 390
-17 0 -56 -30 -126 -97z"/>
</g>
</svg>